<svg xmlns="http://www.w3.org/2000/svg" viewBox="0 0 150 49">
<!-- SVG created with Arrow, by QuiverAI (https://quiver.ai) -->
  <style type="text/css">.cls-0 {fill:#E9E5DE;}
.cls-1 {fill:#FF3333;}</style>
  <rect class="cls-0" width="149.9" height="48.8"/>
  <path d="m1.1 37.7 10.5-33.1h8.8l11.6 33.2h-7.5l-2.4-7.5h-11.9l-2.3 7.4h-6.8zm19.2-12.8-4.2-12.5h-0.2l-4.1 12.5h8.5z"/>
  <path d="m35 40.7 6.5-0.7c0.5 1.2 1.9 2.5 5.1 2.5 2.9 0 5.3-1.1 5.3-4.4v-4.7h-0.3c-0.9 2-2.9 4-7.2 4-5.4 0-10.2-3.5-10.2-11.9 0-8.2 4.9-12.6 10.2-12.6 4.1 0 6.1 2.3 7.3 4.4h0.3v-4.1h6.8v24.9c0 6.2-4.9 9.2-12.5 9.2-6.6 0-10.6-2.9-11.3-6.6zm17-15.2c0-4.1-1.7-7.2-5.3-7.2-3.4 0-5.4 2.8-5.4 7.2s1.8 6.8 5.2 6.8c3.5 0.2 5.5-2.6 5.5-6.8z"/>
  <path d="m62.5 25.6c0-7.4 4.6-12.7 11.8-12.7 6.5 0 11.8 3.8 11.8 12.4v2h-16.9c0 3.4 2 5.9 5.4 5.9 2.2 0 4.2-0.9 4.8-2.9l6.5 0.4c-0.9 4.5-4.9 7.5-11.1 7.5-7.7 0.1-12.3-4.8-12.3-12.6zm16.9-2.5c0-2.8-2-5.1-4.9-5.1-3.1 0-5.3 2.2-5.3 5.1h10.2z"/>
  <path d="m96.8 37.8h-6.9v-24.6h6.6v4.4h0.3c1.1-2.7 3.6-4.7 7.6-4.7 4.9 0 8.9 3.3 8.9 9.2v15.7h-7.3v-14.4c0-2.9-1.6-4.9-4.3-4.9s-4.9 1.8-4.9 5.1v14.2z"/>
  <path d="m131.3 18.3h-4.9v12c0 1.8 0.9 2.4 2.2 2.4 0.7 0 1.4-0.2 2-0.2l1.1 5c-0.8 0.2-2 0.6-4.2 0.6-4.9 0-8.3-2.1-8.3-6.9v-12.9h-3.3v-5.1h3.3v-6.1h7.2v6h4.9v5.2z"/>
  <path d="m134.1 17.5 6.7-5.1c2.5-2 3.4-2.9 3.4-4.4 0-1.6-1.4-2.9-3.4-2.9s-2.7 1.1-2.5 2.7h-4.6c-0.2-4 3.1-7.1 7.8-7.1 4.3 0 7.1 2.6 7.1 5.7 0 4.7-4.2 6.9-8 10v1h8v4h-14.5v-3.9z"/>
  <path class="cls-1" d="m134.8 32.3c0-3.5 2.9-6.7 6.7-6.7 3.6 0 6.5 2.9 6.5 6.7 0 3.6-2.9 6.9-6.5 6.9-3.8 0.1-6.7-2.9-6.7-6.9z"/>
</svg>